<svg id="Layer_1" data-name="Layer 1" xmlns="http://www.w3.org/2000/svg" viewBox="0 0 445.52 332.81"><defs><style>.cls-1{fill:#ff5a02;}.cls-2{fill:#17202d;}</style></defs><path class="cls-1" d="M398.67,234.87a21.94,21.94,0,0,1-20.73-14.25c-.13-.35-.25-.71-.35-1.07L363.3,165.5l-92.09,37A22.36,22.36,0,0,1,242,173.81L302.12,14.47a22.37,22.37,0,0,1,42.07.6c.08.23.15.47.21.7l32.46,122.74,38-15.23a22.36,22.36,0,0,1,30.1,25.85,9.58,9.58,0,0,1-.31,1.08l-24.2,68a22,22,0,0,1-20.05,16.59C399.79,234.85,399.23,234.87,398.67,234.87Zm-1.93-21.14a2.11,2.11,0,0,0,2.21,1.13,2.15,2.15,0,0,0,2.14-1.82,10,10,0,0,1,.31-1.07l24.11-67.75a2.37,2.37,0,0,0-3.25-2.38L382,158ZM323,20a2.18,2.18,0,0,0-2.2,1.53L260.67,180.87a2.36,2.36,0,0,0,3.09,3L358.15,146l-33-124.66A2.15,2.15,0,0,0,323.08,20Z"/><path class="cls-2" d="M0,168.42c0-19.63,14.28-35.69,33.09-35.69,9.88,0,18.12,5.08,22,10.57v-9.2h15.1v69.64H55.05V193.55c-3.84,5.49-12.08,10.57-22,10.57C14.28,204.12,0,188.05,0,168.42Zm56.29,0c0-12.35-8.38-22-20.46-22s-20.45,9.61-20.45,22,8.37,22,20.45,22S56.29,180.78,56.29,168.42Z"/><path class="cls-2" d="M76.8,168.42c0-20.32,15.65-35.69,36.24-35.69,14.28,0,26.09,7.41,32,18.94l-13.18,7.14A20.45,20.45,0,0,0,113,146.73c-12.21,0-20.86,9.47-20.86,21.69s8.65,21.69,20.86,21.69A20.45,20.45,0,0,0,131.85,178L145,185.17c-5.9,11.53-17.71,19-32,19C92.45,204.12,76.8,188.74,76.8,168.42Z"/><path class="cls-2" d="M148.27,189.56l11.12-8c2.74,6,9.47,9.47,16.47,9.47,5.36,0,9.89-2.47,9.89-7.27,0-4-2.34-6.18-10.57-8.79l-6-1.64c-12.09-3.3-18.13-10.71-18-21,0-12.08,10.85-19.63,24.58-19.63,10.43,0,18.39,4,23.2,11.67l-10.44,8c-3.16-4.26-7.41-7-13-7-4.53,0-9.2,2.2-9.2,6.45,0,3.3,1.51,6,8.24,8.1l7,2.06c12.08,3.71,19.22,9.47,19.22,20.87,0,13.18-10.71,21.28-24.85,21.28C163.64,204.12,153.21,199.45,148.27,189.56Z"/><path class="cls-2" d="M2.33,320.18l9.2-10.85a29.7,29.7,0,0,0,22.79,10c11.4,0,20.73-7.55,20.73-21.41v-6.32c-4.26,6-12.49,10.71-22,10.71C14.55,302.33.14,287,.14,267.46s14.41-34.73,33-34.73c9.47,0,17.7,4.53,22,10.57v-9.2h15.1v64c0,23.88-15.37,34.73-35.69,34.73C20.87,332.81,9.06,327.87,2.33,320.18Zm54-52.72c0-12.22-8.93-21-20.46-21s-20.45,8.78-20.45,21,8.92,21,20.45,21S56.29,279.68,56.29,267.46Z"/><path class="cls-2" d="M82.61,234.1h15.1v12.22a19.3,19.3,0,0,1,18.12-12.9,27,27,0,0,1,5.9.54v15.52a20.3,20.3,0,0,0-7.55-1.24c-8.65,0-16.47,7.28-16.47,21v34.49H82.61Z"/><path class="cls-2" d="M121.5,268.42c0-19.9,15.65-35.69,36-35.69s36,15.79,36,35.69-15.65,35.7-36,35.7S121.5,288.33,121.5,268.42Zm56.56,0c0-12.22-8.51-21.69-20.59-21.69s-20.73,9.47-20.73,21.69,8.51,21.69,20.73,21.69S178.06,280.64,178.06,268.42Z"/><path class="cls-2" d="M200.85,275.15v-41H216v38.58c0,11,4.94,17.71,13.73,17.71,9.88,0,16.75-7.69,16.75-22.52V234.1h15.1v69.64h-15.1V293.41c-4,7-11.26,10.71-20.05,10.71C210.6,304.12,200.85,292.72,200.85,275.15Z"/><path class="cls-2" d="M270,331.44V234.1h15.1v9.2c3.85-5.49,12.22-10.57,22.11-10.57,18.8,0,33.08,16.06,33.08,35.69s-14.28,35.7-33.08,35.7c-9.89,0-18.26-5.08-22.11-10.57v37.89Zm54.92-63c0-12.35-8.38-22-20.46-22s-20.59,9.61-20.59,22,8.37,22,20.59,22S324.9,280.78,324.9,268.42Z"/></svg>